<svg xmlns="http://www.w3.org/2000/svg" viewBox="0 0 5.384864 5.384864" role="img" aria-label="Radisson Hotel Group">
  <g transform="translate(-89.582168 -202.081719)" fill="#474a50" fill-rule="nonzero">
    <path d="m 92.924384,205.66775 h -0.4953 v -0.67945 h -0.636411 v 0.67945 h -0.4953 v -1.78788 h 0.4953 v 0.66922 h 0.636411 v -0.66922 h 0.4953 z m 1.154289,0.036 c -0.557036,0 -0.970492,-0.38311 -0.970492,-0.92463 v -0.005 c 0,-0.5214 0.408517,-0.92957 0.960261,-0.92957 h 0.42545 c -0.371827,-0.95391 -1.297516,-1.63054 -2.383014,-1.63054 -1.098902,0 -2.033411,0.69392 -2.396419,1.66617 h 0.658283 c 0.273403,0 0.462139,0.0716 0.582436,0.19156 0.104423,0.10442 0.158045,0.23989 0.158045,0.41628 v 0.005 c 0,0.27622 -0.145345,0.45755 -0.367595,0.55174 l 0.426509,0.62336 h -0.569384 l -0.360538,-0.54151 h -0.219781 v 0.54151 h -0.307975 c 0.363008,0.97226 1.297517,1.66617 2.396419,1.66617 1.116189,0 2.063045,-0.71579 2.413353,-1.71238 -0.13088,0.0508 -0.2794,0.0822 -0.445558,0.0822" />
    <path d="m 90.617992,204.52604 v -0.005 c 0,-0.14288 -0.104775,-0.21449 -0.268111,-0.21449 h -0.327378 v 0.4318 h 0.329847 c 0.166159,0 0.265642,-0.0819 0.265642,-0.21202" />
    <path d="m 94.385513,204.98568 v 0.21731 c -0.07126,0.0487 -0.163336,0.0744 -0.286103,0.0744 -0.283633,0 -0.485775,-0.20744 -0.485775,-0.49848 v -0.005 c 0,-0.27305 0.199672,-0.48789 0.457553,-0.48789 h 0.551744 c 0.02152,0.10971 0.03387,0.22295 0.04022,0.33761 H 94.03556 v 0.3623 z" />
  </g>
</svg>
